<svg width="80" height="134" viewBox="0 0 80 134" fill="none" xmlns="http://www.w3.org/2000/svg">
<path d="M12.765 92.152C9.09567 91.7253 6.19433 90.4453 4.061 88.312C2.013 86.1787 0.989 83.4907 0.989 80.248C0.989 77.7733 1.58633 75.2133 2.781 72.568L32.093 5.88C33.7143 2.12533 36.5303 0.247993 40.541 0.247993C44.4663 0.247993 47.2397 2.12533 48.861 5.88L78.173 72.568C79.3677 75.384 79.965 77.944 79.965 80.248C79.965 83.4907 78.8983 86.1787 76.765 88.312C74.717 90.4453 71.8157 91.7253 68.061 92.152L57.309 67.832H23.645L12.765 92.152ZM52.061 53.24L37.981 18.168L36.445 18.808L39.517 26.744L28.765 53.24H52.061ZM6.47438 112.808C6.47438 112.019 6.74104 111.411 7.27438 110.984C7.80771 110.536 8.54371 110.312 9.48238 110.312L17.2264 128.904L16.6184 130.408L16.8424 130.504L25.0344 110.312C25.973 110.312 26.709 110.536 27.2424 110.984C27.797 111.432 28.0744 112.051 28.0744 112.84V133.288C26.0904 133.288 25.0984 132.467 25.0984 130.824V117.352L25.9304 115.144L25.6744 115.08L18.5384 132.424C18.4317 132.68 18.261 132.883 18.0264 133.032C17.7917 133.203 17.5464 133.288 17.2904 133.288C17.013 133.288 16.757 133.213 16.5224 133.064C16.2877 132.915 16.117 132.701 16.0104 132.424L8.87438 115.048L8.61838 115.144L9.45038 117.32V130.824C9.45038 131.635 9.19438 132.253 8.68238 132.68C8.19171 133.085 7.45571 133.288 6.47438 133.288V112.808ZM34.6801 114.312C34.0828 114.312 33.5815 114.12 33.1761 113.736C32.7708 113.352 32.5681 112.872 32.5681 112.296C32.5681 111.72 32.7708 111.251 33.1761 110.888C33.5815 110.504 34.0828 110.312 34.6801 110.312C35.2561 110.312 35.7468 110.504 36.1521 110.888C36.5575 111.251 36.7601 111.72 36.7601 112.296C36.7601 112.872 36.5575 113.352 36.1521 113.736C35.7468 114.12 35.2561 114.312 34.6801 114.312ZM33.2721 118.76C33.2721 118.056 33.4961 117.544 33.9441 117.224C34.4135 116.883 35.1175 116.712 36.0561 116.712V131.24C36.0561 131.944 35.8215 132.467 35.3521 132.808C34.9041 133.128 34.2108 133.288 33.2721 133.288V118.76ZM50.1836 133.288C48.3916 133.288 46.7916 132.957 45.3836 132.296C43.9756 131.613 42.877 130.675 42.0876 129.48C41.3196 128.264 40.9356 126.888 40.9356 125.352V118.184C40.9356 116.648 41.3196 115.283 42.0876 114.088C42.877 112.893 43.965 111.965 45.3516 111.304C46.7383 110.643 48.3276 110.312 50.1196 110.312C51.9116 110.312 53.501 110.6 54.8876 111.176C56.2743 111.731 57.3516 112.509 58.1196 113.512C58.909 114.515 59.3036 115.667 59.3036 116.968C59.3036 117.608 59.0903 118.109 58.6636 118.472C58.237 118.835 57.6716 119.016 56.9676 119.016C56.8183 119.016 56.5943 118.995 56.2956 118.952C56.3383 118.696 56.3596 118.291 56.3596 117.736C56.3596 116.819 56.093 115.997 55.5596 115.272C55.0476 114.547 54.3116 113.981 53.3516 113.576C52.413 113.171 51.3356 112.968 50.1196 112.968C48.925 112.968 47.8583 113.192 46.9196 113.64C45.981 114.067 45.245 114.685 44.7116 115.496C44.1996 116.285 43.9436 117.181 43.9436 118.184V125.352C43.9436 126.376 44.1996 127.293 44.7116 128.104C45.245 128.893 45.981 129.512 46.9196 129.96C47.8796 130.408 48.9676 130.632 50.1836 130.632C51.421 130.632 52.5196 130.429 53.4796 130.024C54.4396 129.619 55.1863 129.064 55.7196 128.36C56.253 127.635 56.5196 126.803 56.5196 125.864C56.5196 125.523 56.4983 125.117 56.4556 124.648C56.7543 124.605 56.9676 124.584 57.0956 124.584C57.7996 124.584 58.365 124.787 58.7916 125.192C59.2396 125.597 59.4636 126.141 59.4636 126.824C59.4636 128.083 59.069 129.203 58.2796 130.184C57.4903 131.165 56.3916 131.933 54.9836 132.488C53.597 133.021 51.997 133.288 50.1836 133.288ZM68.3981 133.288C67.0968 133.288 65.9128 133.043 64.8461 132.552C63.8008 132.061 62.9795 131.4 62.3821 130.568C61.8061 129.715 61.5181 128.765 61.5181 127.72V122.472C61.5181 121.405 61.8061 120.435 62.3821 119.56C62.9795 118.685 63.8008 117.992 64.8461 117.48C65.8915 116.968 67.0755 116.712 68.3981 116.712C69.7208 116.712 70.9048 116.968 71.9501 117.48C73.0168 117.992 73.8381 118.685 74.4141 119.56C75.0115 120.435 75.3101 121.405 75.3101 122.472V127.72C75.3101 128.765 75.0115 129.715 74.4141 130.568C73.8168 131.4 72.9955 132.061 71.9501 132.552C70.9048 133.043 69.7208 133.288 68.3981 133.288ZM68.3981 130.888C69.6781 130.888 70.6915 130.589 71.4381 129.992C72.2061 129.373 72.5901 128.573 72.5901 127.592V122.568C72.5901 121.544 72.2061 120.712 71.4381 120.072C70.6915 119.432 69.6781 119.112 68.3981 119.112C67.1395 119.112 66.1261 119.432 65.3581 120.072C64.5901 120.712 64.2061 121.544 64.2061 122.568V127.592C64.2061 128.573 64.5795 129.373 65.3261 129.992C66.0941 130.589 67.1181 130.888 68.3981 130.888Z" fill="#A83E3E"/>
</svg>
